<svg aria-hidden="true" style="position: absolute; width: 0; height: 0; overflow: hidden;" version="1.1" xmlns="http://www.w3.org/2000/svg" xmlns:xlink="http://www.w3.org/1999/xlink">
<defs>
<symbol id="icon-star-2" viewBox="0 0 32 32">
<path d="M16 0l3.674 7.131 7.64-2.444-2.444 7.64 7.131 3.674-7.131 3.674 2.444 7.64-7.64-2.444-3.674 7.131-3.674-7.131-7.64 2.444 2.444-7.64-7.131-3.674 7.131-3.674-2.444-7.64 7.64 2.444 3.674-7.131z"></path>
</symbol>
<symbol id="icon-cross" viewBox="0 0 32 32">
<path d="M3.2 32l-3.2-3.2 12.8-12.8-12.8-12.8 3.2-3.2 12.8 12.8 12.8-12.8 3.2 3.2-12.8 12.8 12.8 12.8-3.2 3.2-12.8-12.8-12.8 12.8z"></path>
</symbol>
<symbol id="icon-burger" viewBox="0 0 32 32">
<path d="M0 26.667v-3.556h32v3.556h-32zM0 17.778v-3.556h32v3.556h-32zM0 8.889v-3.556h32v3.556h-32z"></path>
</symbol>
<symbol id="icon-star" viewBox="0 0 32 32">
<path d="M16 0l4.526 11.475 11.474 4.525-11.474 4.526-4.526 11.474-4.526-11.474-11.475-4.526 11.475-4.526 4.526-11.475z"></path>
</symbol>
<symbol id="icon-arrow" viewBox="0 0 26 32">
<path d="M0 13.365l1.6 1.6 10.070-10.070v26.538h2.255v-26.538l10.070 10.070 1.6-1.6-12.797-12.797-12.797 12.797z"></path>
</symbol>
<symbol id="icon-chat-bubble" viewBox="0 0 32 32">
<path d="M16.005 0c2.416 0.001 4.801 0.55 6.975 1.605s4.081 2.588 5.577 4.485c1.497 1.897 2.544 4.108 3.064 6.468s0.499 4.806-0.062 7.157-1.647 4.543-3.176 6.413c-1.53 1.871-3.463 3.371-5.655 4.387s-4.586 1.524-7.001 1.483c-2.416-0.041-4.791-0.628-6.948-1.718l-0.242-0.13-7.29 1.82c-0.14 0.035-0.287 0.040-0.429 0.013s-0.277-0.084-0.395-0.168c-0.118-0.084-0.216-0.192-0.288-0.318s-0.116-0.265-0.128-0.409v-0.164l0.028-0.166 1.82-7.288-0.126-0.24c-0.915-1.802-1.479-3.761-1.66-5.774l-0.050-0.764-0.014-0.692c0-4.243 1.686-8.313 4.686-11.314s7.070-4.686 11.314-4.686zM17.005 18h-6l-0.18 0.016c-0.231 0.042-0.439 0.163-0.589 0.343s-0.232 0.407-0.232 0.641c0 0.234 0.082 0.461 0.232 0.641s0.359 0.301 0.589 0.343l0.18 0.016h6l0.18-0.016c0.231-0.042 0.439-0.163 0.589-0.343s0.232-0.407 0.232-0.641c0-0.234-0.082-0.461-0.232-0.641s-0.359-0.301-0.589-0.343l-0.18-0.016zM21.005 12h-10l-0.18 0.016c-0.231 0.042-0.439 0.163-0.589 0.343s-0.232 0.407-0.232 0.641c0 0.234 0.082 0.461 0.232 0.641s0.359 0.301 0.589 0.343l0.18 0.016h10l0.18-0.016c0.231-0.042 0.439-0.163 0.589-0.343s0.232-0.407 0.232-0.641c0-0.234-0.082-0.461-0.232-0.641s-0.359-0.301-0.589-0.343l-0.18-0.016z"></path>
<path d="M21.005 12h-10l-0.18 0.016c-0.231 0.042-0.439 0.163-0.589 0.343s-0.232 0.407-0.232 0.641c0 0.234 0.082 0.461 0.232 0.641s0.359 0.301 0.589 0.343l0.18 0.016h10l0.18-0.016c0.231-0.042 0.439-0.163 0.589-0.343s0.232-0.407 0.232-0.641c0-0.234-0.082-0.461-0.232-0.641s-0.359-0.301-0.589-0.343l-0.18-0.016z"></path>
<path d="M17.005 18h-6l-0.18 0.016c-0.231 0.042-0.439 0.163-0.589 0.343s-0.232 0.407-0.232 0.641c0 0.234 0.082 0.461 0.232 0.641s0.359 0.301 0.589 0.343l0.18 0.016h6l0.18-0.016c0.231-0.042 0.439-0.163 0.589-0.343s0.232-0.407 0.232-0.641c0-0.234-0.082-0.461-0.232-0.641s-0.359-0.301-0.589-0.343l-0.18-0.016z"></path>
</symbol>
<symbol id="icon-circle" viewBox="0 0 71 32">
<path stroke-linejoin="miter" stroke-linecap="round" stroke-miterlimit="4" stroke-width="0.6857" d="M2.229 26.584c-13.177-19.81 55.907-31.922 66.085-23.213 10.192 8.97-12.577 27.402-50.828 28.124-12.181 0-15.782-6.722-14.529-11.507"></path>
</symbol>
<symbol id="icon-circle-2" viewBox="0 0 109 32">
<path stroke-linejoin="miter" stroke-linecap="round" stroke-miterlimit="4" stroke-width="0.7742" d="M106.12 6.333c14.366 25.736-68.244 30.218-94.73 19.708-22.899-9.088-9.443-24.68 50.591-25.36 19.118 0 48.022-0.725 44.139 15.754"></path>
</symbol>
<symbol id="icon-circle-3" viewBox="0 0 84 32">
<path stroke-linejoin="miter" stroke-linecap="round" stroke-miterlimit="4" stroke-width="0.8421" d="M82.045 7.299c11.315 25.693-50.292 29.079-71.154 18.586-18.037-9.072-15.571-24.646 31.715-25.325 15.059 0 40.831-0.709 37.772 15.743"></path>
</symbol>
<symbol id="icon-circle-4" viewBox="0 0 123 32">
<path stroke-linejoin="miter" stroke-linecap="round" stroke-miterlimit="4" stroke-width="0.9412" d="M117.302 13.279c5.288-4.854 2.094-7.257-2.018-8.968-17.421-7.245-123.35-5.009-114.091 17.676 4.453 10.909 98.004 16.973 121.467-8.709"></path>
</symbol>
<symbol id="icon-dots" viewBox="0 0 6 32">
<path d="M3.2 6.4c-1.767 0-3.2-1.433-3.2-3.2s1.433-3.2 3.2-3.2c1.767 0 3.2 1.433 3.2 3.2s-1.433 3.2-3.2 3.2z"></path>
<path d="M3.2 19.2c-1.767 0-3.2-1.433-3.2-3.2s1.433-3.2 3.2-3.2c1.767 0 3.2 1.433 3.2 3.2s-1.433 3.2-3.2 3.2z"></path>
<path d="M3.2 32c-1.767 0-3.2-1.433-3.2-3.2s1.433-3.2 3.2-3.2c1.767 0 3.2 1.433 3.2 3.2s-1.433 3.2-3.2 3.2z"></path>
</symbol>
<symbol id="icon-double-quote" viewBox="0 0 32 32">
<path d="M0 1.333v29.333l13.333-10.667v-18.667h-13.333z"></path>
<path d="M18.667 1.333v29.333l13.333-10.667v-18.667h-13.333z"></path>
</symbol>
<symbol id="icon-instagram" viewBox="0 0 32 32">
<path d="M15.996 7.791c-4.543 0-8.209 3.666-8.209 8.209s3.666 8.209 8.209 8.209c4.543 0 8.209-3.666 8.209-8.209s-3.666-8.209-8.209-8.209zM15.996 21.335c-2.938 0-5.335-2.398-5.335-5.335s2.398-5.335 5.335-5.335 5.335 2.398 5.335 5.335c0 2.938-2.398 5.335-5.335 5.335zM24.541 5.541c-1.061 0-1.917 0.857-1.917 1.917s0.857 1.917 1.917 1.917c1.061 0 1.917-0.853 1.917-1.917 0-0.252-0.049-0.501-0.145-0.734s-0.238-0.444-0.416-0.622c-0.178-0.178-0.39-0.319-0.622-0.416s-0.482-0.146-0.734-0.145zM31.998 16c0-2.209 0.020-4.399-0.104-6.604-0.124-2.562-0.709-4.835-2.582-6.708-1.877-1.877-4.147-2.458-6.708-2.582-2.209-0.124-4.399-0.104-6.604-0.104-2.209 0-4.399-0.020-6.604 0.104-2.562 0.124-4.835 0.708-6.708 2.582-1.877 1.877-2.458 4.147-2.582 6.708-0.124 2.209-0.104 4.399-0.104 6.604s-0.020 4.399 0.104 6.604c0.124 2.562 0.708 4.835 2.582 6.708 1.877 1.877 4.147 2.458 6.708 2.582 2.209 0.124 4.399 0.104 6.604 0.104 2.21 0 4.399 0.020 6.604-0.104 2.562-0.124 4.835-0.709 6.708-2.582 1.877-1.877 2.458-4.147 2.582-6.708 0.128-2.205 0.104-4.395 0.104-6.604zM28.476 25.438c-0.292 0.729-0.644 1.273-1.209 1.833-0.564 0.564-1.105 0.917-1.833 1.209-2.106 0.837-7.105 0.648-9.438 0.648s-7.337 0.188-9.442-0.644c-0.728-0.292-1.273-0.645-1.833-1.209-0.564-0.564-0.917-1.105-1.209-1.833-0.833-2.109-0.644-7.109-0.644-9.442s-0.188-7.337 0.644-9.442c0.292-0.728 0.644-1.273 1.209-1.833s1.105-0.917 1.833-1.209c2.105-0.833 7.109-0.644 9.442-0.644s7.337-0.188 9.442 0.644c0.729 0.292 1.273 0.644 1.833 1.209 0.564 0.564 0.917 1.105 1.209 1.833 0.833 2.105 0.645 7.109 0.645 9.442s0.188 7.333-0.648 9.438z"></path>
</symbol>
<symbol id="icon-line" viewBox="0 0 23 32">
<path d="M12.291 27.317c-1.371-0.173-2.578 4.268-3.063 4.336-0.565-0.055-7.807-5.235-8.776-6.149-0.348-0.327-0.356-0.448-0.053-0.523 0.534-0.081 2.366-4.399 2.366-4.399 0.266 0.099-0.418-0.562-0.117-0.405 0.716 0.337 3.874-6.539 4.179-7.1 0.189-0.34 0.471 0.206 0.539-0.293 0.17-1.047 1.66-2.605 1.646-3.489-0.021-0.716 0.039-0.829 0.614-1.128 0.554-0.328 1.865-3.138 1.535-3.771-0.099-0.167-0.011-0.188 0.158-0.078 0.034 0.023 1.33-1.719 1.46-1.646 0.173 0.093 0.29 0.088 0.21-0.035-0.113-0.206 0.508-2.549 1.010-2.268 1.445 0.798 7.153 4.867 8.435 6.016 1.381 1.219-1.147 1.375-0.879 2.99l-2.956 4.792-0.080 1.384c-0.575-0.208 0.39 1.049-0.674 0.746-0.426-0.115-0.997 0.659-0.736 1.080 0.191 0.344-3.191 3.996-2.465 5.065-1.322 0.213-2.093 4.043-2.348 4.879l-0.006-0.004z"></path>
</symbol>
<symbol id="icon-square" viewBox="0 0 32 32">
<path d="M0 0h32v32h-32v-32z"></path>
</symbol>
</defs>
</svg>
